<svg xmlns="http://www.w3.org/2000/svg" xmlns:xlink="http://www.w3.org/1999/xlink" viewBox="0 0 173.65 27.09"><defs><clipPath id="clip-path" transform="translate(-12.06 -11.62)"><rect width="214.49" height="49.47" style="fill:none"/></clipPath></defs><title>Asset 1</title><g id="Layer_2" data-name="Layer 2"><g id="Layer_1-2" data-name="Layer 1"><g style="clip-path:url(#clip-path)"><path d="M12.06,13.36H25.5v2.7H15.28v8.29h9.44V27H15.28V38.3H12.06Z" transform="translate(-12.06 -11.62)" style="fill:#fff"/><path d="M34.82,12h3.26V38.3H34.82Z" transform="translate(-12.06 -11.62)" style="fill:#fff"/><path d="M54.28,38.3,54,36h-.11a6.67,6.67,0,0,1-5.48,2.66A5.1,5.1,0,0,1,43,33.56c0-4.33,3.85-6.7,10.77-6.66v-.37c0-1.48-.41-4.14-4.07-4.14A8.93,8.93,0,0,0,45,23.72l-.74-2.15A11.12,11.12,0,0,1,50.14,20c5.48,0,6.81,3.74,6.81,7.33V34a25.2,25.2,0,0,0,.3,4.29Zm-.48-9.14c-3.55-.07-7.59.55-7.59,4a2.88,2.88,0,0,0,3.07,3.11,4.46,4.46,0,0,0,4.33-3,3.39,3.39,0,0,0,.19-1Z" transform="translate(-12.06 -11.62)" style="fill:#fff"/><path d="M64.79,35a8.53,8.53,0,0,0,4.29,1.29c2.37,0,3.48-1.18,3.48-2.66s-.93-2.41-3.33-3.29c-3.22-1.15-4.74-2.92-4.74-5.07,0-2.89,2.33-5.25,6.18-5.25a8.94,8.94,0,0,1,4.4,1.11l-.81,2.37a7,7,0,0,0-3.66-1c-1.92,0-3,1.11-3,2.44s1.07,2.15,3.4,3c3.11,1.18,4.7,2.74,4.7,5.4,0,3.14-2.44,5.37-6.7,5.37a10.22,10.22,0,0,1-5-1.22Z" transform="translate(-12.06 -11.62)" style="fill:#fff"/><path d="M82.81,12h3.26V23.2h.07a6,6,0,0,1,2.33-2.29A6.7,6.7,0,0,1,91.8,20c2.41,0,6.25,1.48,6.25,7.66V38.3H94.8V28c0-2.89-1.07-5.33-4.14-5.33a4.68,4.68,0,0,0-4.37,3.26,4,4,0,0,0-.22,1.55V38.3H82.81Z" transform="translate(-12.06 -11.62)" style="fill:#fff"/><path d="M104.49,34.37A11.41,11.41,0,0,0,110.26,36c3.29,0,5.22-1.74,5.22-4.26,0-2.33-1.33-3.66-4.7-5-4.07-1.44-6.59-3.55-6.59-7.07,0-3.89,3.22-6.77,8.07-6.77a11.32,11.32,0,0,1,5.51,1.22l-.89,2.63a9.94,9.94,0,0,0-4.74-1.18c-3.4,0-4.7,2-4.7,3.74,0,2.33,1.52,3.48,5,4.81,4.22,1.63,6.36,3.66,6.36,7.33,0,3.85-2.85,7.18-8.73,7.18a12.89,12.89,0,0,1-6.36-1.59Z" transform="translate(-12.06 -11.62)" style="fill:#fff"/><path d="M143.71,29.19c0,6.62-4.59,9.51-8.92,9.51-4.85,0-8.58-3.55-8.58-9.21,0-6,3.92-9.51,8.88-9.51C140.23,20,143.71,23.72,143.71,29.19Zm-14.21.18c0,3.92,2.26,6.88,5.44,6.88s5.44-2.92,5.44-7c0-3-1.52-6.88-5.37-6.88S129.5,26,129.5,29.38Z" transform="translate(-12.06 -11.62)" style="fill:#fff"/><path d="M150.55,38.3V22.87H148V20.39h2.52v-.85c0-2.52.55-4.81,2.07-6.25A6.23,6.23,0,0,1,157,11.62a7.54,7.54,0,0,1,2.78.52l-.44,2.52a4.86,4.86,0,0,0-2.07-.41c-2.78,0-3.48,2.44-3.48,5.18v1h4.33v2.48h-4.33V38.3Z" transform="translate(-12.06 -11.62)" style="fill:#fff"/><path d="M169.31,15.24v5.14H174v2.48h-4.66v9.66c0,2.22.63,3.48,2.44,3.48a7.23,7.23,0,0,0,1.89-.22l.15,2.44a8,8,0,0,1-2.89.44,4.51,4.51,0,0,1-3.52-1.37c-.92-1-1.26-2.55-1.26-4.66V22.87h-2.78V20.39h2.78V16.09Z" transform="translate(-12.06 -11.62)" style="fill:#fff"/></g><path d="M185.71,22a3,3,0,1,1-3-3A3,3,0,0,1,185.71,22Zm-5.31,0a2.29,2.29,0,0,0,2.3,2.36A2.26,2.26,0,0,0,185,22.06a2.28,2.28,0,1,0-4.56,0Zm1.82,1.55h-.68v-3a6,6,0,0,1,1.13-.09,1.84,1.84,0,0,1,1,.22.82.82,0,0,1,.29.65.76.76,0,0,1-.61.68v0a.88.88,0,0,1,.54.72,2.25,2.25,0,0,0,.22.74h-.74a2.52,2.52,0,0,1-.23-.72c-.05-.32-.23-.47-.61-.47h-.32Zm0-1.67h.32c.38,0,.68-.13.68-.43s-.2-.45-.63-.45a1.64,1.64,0,0,0-.38,0Z" transform="translate(-12.06 -11.62)" style="fill:#fff"/></g></g></svg>